<svg aria-hidden="true" style="position: absolute; width: 0; height: 0; overflow: hidden;" version="1.1" xmlns="http://www.w3.org/2000/svg" xmlns:xlink="http://www.w3.org/1999/xlink">
<defs>
<symbol id="icon-mark" viewBox="0 0 43 32">
<path fill="#01acb4" style="fill: var(--color1, #01acb4)" d="M36.035 1.020c0.737-0.662 1.718-1.027 2.736-1.020s1.993 0.387 2.72 1.059c0.727 0.672 1.148 1.584 1.175 2.543s-0.342 1.891-1.030 2.598l-20.884 24.617c-0.359 0.365-0.793 0.657-1.274 0.86s-1.002 0.313-1.53 0.322-1.052-0.082-1.541-0.268c-0.489-0.186-0.934-0.463-1.307-0.815l-13.849-13.054c-0.386-0.339-0.695-0.747-0.91-1.201s-0.33-0.944-0.339-1.441c-0.009-0.497 0.088-0.99 0.285-1.451s0.491-0.879 0.864-1.231c0.373-0.351 0.817-0.628 1.306-0.814s1.012-0.277 1.539-0.269c0.527 0.009 1.047 0.117 1.528 0.32s0.915 0.494 1.274 0.857l10.96 10.325 18.178-21.83c0.033-0.038 0.068-0.074 0.105-0.109h-0.005z"></path>
</symbol>
</defs>
<defs>
<symbol id="icon-quotes" viewBox="0 0 42 32">
<path fill="#03a8b7" style="fill: var(--color1, #03a8b7)" d="M9.626 12.761c-0.471 0-0.923 0.073-1.372 0.139 0.146-0.496 0.296-1 0.536-1.454 0.241-0.658 0.617-1.229 0.99-1.804 0.312-0.622 0.864-1.043 1.269-1.575 0.424-0.517 1.003-0.861 1.461-1.291 0.45-0.449 1.039-0.673 1.507-0.99 0.49-0.284 0.916-0.599 1.372-0.748l1.138-0.475 1.001-0.421-1.024-4.143-1.261 0.308c-0.403 0.103-0.895 0.222-1.455 0.366-0.572 0.107-1.182 0.4-1.862 0.667-0.671 0.304-1.448 0.509-2.17 0.996-0.726 0.466-1.565 0.855-2.303 1.479-0.716 0.643-1.579 1.201-2.217 2.020-0.697 0.765-1.385 1.569-1.919 2.484-0.619 0.872-1.039 1.83-1.482 2.777-0.401 0.947-0.724 1.915-0.988 2.856-0.5 1.885-0.724 3.677-0.811 5.209-0.072 1.535-0.030 2.811 0.059 3.734 0.032 0.436 0.091 0.859 0.133 1.152l0.053 0.359 0.055-0.013c0.376 1.776 1.24 3.408 2.493 4.707s2.845 2.213 4.589 2.635c1.745 0.422 3.572 0.335 5.27-0.25s3.198-1.646 4.326-3.058c1.128-1.412 1.838-3.119 2.048-4.923s-0.089-3.631-0.862-5.27c-0.773-1.639-1.988-3.023-3.506-3.992s-3.275-1.483-5.069-1.483zM32.851 12.761c-0.471 0-0.923 0.073-1.372 0.139 0.146-0.496 0.296-1 0.536-1.454 0.241-0.658 0.617-1.229 0.99-1.804 0.312-0.622 0.864-1.043 1.269-1.575 0.424-0.517 1.003-0.861 1.461-1.291 0.45-0.449 1.039-0.673 1.508-0.99 0.49-0.284 0.916-0.599 1.372-0.748l1.138-0.475 1.001-0.421-1.024-4.143-1.261 0.308c-0.403 0.103-0.895 0.222-1.455 0.366-0.572 0.107-1.182 0.4-1.862 0.667-0.669 0.306-1.448 0.509-2.17 0.998-0.726 0.466-1.565 0.855-2.304 1.479-0.716 0.643-1.579 1.201-2.217 2.018-0.697 0.765-1.385 1.569-1.919 2.484-0.619 0.872-1.039 1.83-1.482 2.777-0.401 0.947-0.724 1.915-0.988 2.856-0.5 1.885-0.724 3.677-0.811 5.209-0.072 1.535-0.030 2.811 0.059 3.734 0.032 0.436 0.091 0.859 0.133 1.152l0.053 0.359 0.055-0.013c0.376 1.776 1.24 3.408 2.493 4.707s2.845 2.213 4.589 2.635c1.745 0.422 3.572 0.335 5.27-0.25s3.198-1.646 4.326-3.058c1.128-1.412 1.838-3.119 2.048-4.923s-0.089-3.631-0.862-5.27c-0.773-1.639-1.989-3.023-3.506-3.992s-3.275-1.483-5.069-1.483z"></path>
</symbol>
</defs>
<defs>
<symbol id="icon-analytics" viewBox="0 0 32 32">
<path fill="#01acb4" style="fill: var(--color1, #01acb4)" d="M4 2h-2v26c0 0.53 0.211 1.039 0.586 1.414s0.884 0.586 1.414 0.586h26v-2h-26v-26z"></path>
<path fill="#01acb4" style="fill: var(--color1, #01acb4)" d="M30 9h-7v2h3.59l-7.59 7.59-4.29-4.3c-0.093-0.094-0.204-0.168-0.325-0.219s-0.253-0.077-0.385-0.077-0.263 0.026-0.385 0.077c-0.122 0.051-0.232 0.125-0.325 0.219l-7.29 7.3 1.41 1.41 6.59-6.59 4.29 4.3c0.093 0.094 0.204 0.168 0.325 0.219s0.253 0.077 0.385 0.077 0.263-0.026 0.385-0.077c0.122-0.051 0.232-0.125 0.325-0.219l8.29-8.3v3.59h2v-7z"></path>
</symbol>
<symbol id="icon-r-code" viewBox="0 0 32 32">
<path fill="#03a8b7" style="fill: var(--color2, #03a8b7)" d="M24 28v-2h2v2h-2z"></path>
<path fill="#03a8b7" style="fill: var(--color2, #03a8b7)" d="M18 24v-2h2v2h-2z"></path>
<path fill="#03a8b7" style="fill: var(--color2, #03a8b7)" d="M18 30h4v-2h-2v-2h-2v4z"></path>
<path fill="#03a8b7" style="fill: var(--color2, #03a8b7)" d="M26 26v-4h2v4h-2z"></path>
<path fill="#03a8b7" style="fill: var(--color2, #03a8b7)" d="M28 26h2v4h-4v-2h2v-2z"></path>
<path fill="#03a8b7" style="fill: var(--color2, #03a8b7)" d="M26 20v-2h4v4h-2v-2h-2z"></path>
<path fill="#03a8b7" style="fill: var(--color2, #03a8b7)" d="M24 20h-2v4h-2v2h4v-6z"></path>
<path fill="#03a8b7" style="fill: var(--color2, #03a8b7)" d="M18 20v-2h4v2h-4z"></path>
<path fill="#03a8b7" style="fill: var(--color2, #03a8b7)" d="M6 22h4v4h-4v-4z"></path>
<path fill="#03a8b7" style="fill: var(--color2, #03a8b7)" d="M14 30h-12v-12h12v12zM4 28h8v-8h-8v8z"></path>
<path fill="#03a8b7" style="fill: var(--color2, #03a8b7)" d="M22 6h4v4h-4v-4z"></path>
<path fill="#03a8b7" style="fill: var(--color2, #03a8b7)" d="M30 14h-12v-12h12v12zM20 12h8v-8h-8v8z"></path>
<path fill="#03a8b7" style="fill: var(--color2, #03a8b7)" d="M6 6h4v4h-4v-4z"></path>
<path fill="#03a8b7" style="fill: var(--color2, #03a8b7)" d="M14 14h-12v-12h12v12zM4 12h8v-8h-8v8z"></path>
</symbol>
<symbol id="icon-notebook" viewBox="0 0 32 32">
<path fill="#455a64" style="fill: var(--color3, #455a64)" d="M24 2.667h-6.667c0 0.733-0.6 1.333-1.333 1.333s-1.333-0.6-1.333-1.333h-6.667c-1.467 0-2.667 1.2-2.667 2.667v21.333c0 1.467 1.2 2.667 2.667 2.667h16c1.467 0 2.667-1.2 2.667-2.667v-21.333c0-1.467-1.2-2.667-2.667-2.667z"></path>
<path fill="#fff" style="fill: var(--color4, #fff)" d="M24 27.333h-16c-0.4 0-0.667-0.267-0.667-0.667v-21.333c0-0.4 0.267-0.667 0.667-0.667h16c0.4 0 0.667 0.267 0.667 0.667v21.333c0 0.4-0.267 0.667-0.667 0.667z"></path>
<path fill="#90a4ae" style="fill: var(--color5, #90a4ae)" d="M17.333 2.667c0 0.733-0.6 1.333-1.333 1.333s-1.333-0.6-1.333-1.333h-4.667v2.667c0 0.733 0.6 1.333 1.333 1.333h9.333c0.733 0 1.333-0.6 1.333-1.333v-2.667h-4.667z"></path>
<path fill="#90a4ae" style="fill: var(--color5, #90a4ae)" d="M16 0c-1.467 0-2.667 1.2-2.667 2.667s1.2 2.667 2.667 2.667c1.467 0 2.667-1.2 2.667-2.667s-1.2-2.667-2.667-2.667zM16 4c-0.733 0-1.333-0.6-1.333-1.333s0.6-1.333 1.333-1.333c0.733 0 1.333 0.6 1.333 1.333s-0.6 1.333-1.333 1.333z"></path>
<path fill="#cfd8dc" style="fill: var(--color6, #cfd8dc)" d="M14 13.333h8v1.333h-8v-1.333z"></path>
<path fill="#cfd8dc" style="fill: var(--color6, #cfd8dc)" d="M10 12.667h2.667v2.667h-2.667v-2.667z"></path>
<path fill="#03a8b7" style="fill: var(--color2, #03a8b7)" d="M14 19.333h8v1.333h-8v-1.333z"></path>
<path fill="#03a8b7" style="fill: var(--color2, #03a8b7)" d="M10 18.667h2.667v2.667h-2.667v-2.667z"></path>
</symbol>
<symbol id="icon-arrow-left" viewBox="0 0 37 32">
<path fill="#03a8b7" style="fill: var(--color2, #03a8b7)" d="M12.667 7.355c0.15-0.15 0.234-0.354 0.234-0.566s-0.084-0.416-0.234-0.566c-0.15-0.15-0.354-0.234-0.566-0.234s-0.416 0.084-0.566 0.234l-9.052 9.052c-0.15 0.15-0.234 0.354-0.234 0.566s0.084 0.416 0.234 0.566l9.052 9.052c0.15 0.15 0.354 0.234 0.566 0.234s0.416-0.084 0.566-0.234c0.15-0.15 0.234-0.354 0.234-0.566s-0.084-0.416-0.234-0.566l-7.686-7.686 27.487 0.001c0.212 0 0.416-0.084 0.567-0.235s0.235-0.354 0.235-0.566c0-0.212-0.084-0.416-0.235-0.566s-0.354-0.235-0.567-0.235l-27.487 0.001 7.686-7.686z"></path>
</symbol>
<symbol id="icon-light" viewBox="0 0 32 32">
<path fill="none" stroke="#000" style="stroke: var(--color7, #000)" stroke-linejoin="miter" stroke-linecap="butt" stroke-miterlimit="4" stroke-width="0.8" d="M14.397 21.674v1.062c0 1.189 0.964 2.152 2.152 2.152s2.152-0.964 2.152-2.152v-1.267c0-0.367 0.059-0.733 0.175-1.081l0.187-0.562c0.199-0.596 0.476-1.163 0.825-1.686l1.314-1.972c0.52-0.78 0.724-1.729 0.57-2.654-0.060-0.363-0.175-0.715-0.339-1.044l-0.155-0.309c-0.387-0.774-0.969-1.434-1.689-1.914-0.585-0.39-1.247-0.652-1.941-0.768l-0.102-0.017c-0.552-0.092-1.114-0.098-1.668-0.019l-0.394 0.056c-0.717 0.102-1.402 0.364-2.004 0.766-0.702 0.468-1.27 1.112-1.648 1.866l-0.153 0.305c-0.176 0.351-0.298 0.726-0.362 1.114-0.151 0.907 0.020 1.838 0.483 2.631l1.601 2.745 0.654 1.308c0.223 0.446 0.339 0.939 0.339 1.438z"></path>
<path d="M14.396 21.908h3.974v0.662h-3.974v-0.662z"></path>
<path d="M21.82 8.057l0.468 0.468-1.405 1.405-0.468-0.468 1.405-1.405z"></path>
<path d="M10.422 8.468l0.468-0.468 1.405 1.405-0.468 0.468-1.405-1.405z"></path>
<path d="M23.556 20.664l-0.468 0.468-1.405-1.405 0.468-0.468 1.405 1.405z"></path>
<path d="M10.655 19.259l0.412 0.518-1.556 1.236-0.412-0.518 1.556-1.236z"></path>
<path d="M25.657 14.623v0.662h-1.987v-0.662h1.987z"></path>
<path d="M7.111 15.285v-0.662h1.987v0.662h-1.987z"></path>
<path fill="none" stroke="#000" style="stroke: var(--color7, #000)" stroke-linejoin="miter" stroke-linecap="butt" stroke-miterlimit="4" stroke-width="0.8" d="M31.6 16c0 8.616-6.984 15.6-15.6 15.6s-15.6-6.984-15.6-15.6c0-8.616 6.984-15.6 15.6-15.6s15.6 6.984 15.6 15.6z"></path>
<path fill="none" stroke="#000" style="stroke: var(--color7, #000)" stroke-linejoin="miter" stroke-linecap="butt" stroke-miterlimit="4" stroke-width="0.8" d="M13.6 14.4l1.4-1.6 1.4 1.6 1.4-1.6 1.4 1.6"></path>
</symbol>
<symbol id="icon-label" viewBox="0 0 32 32">
<path fill="#03a8b7" style="fill: var(--color2, #03a8b7)" d="M30.68 15.173l-12-12c-0.48-0.48-1.147-0.773-1.88-0.773h-9.333c-1.467 0-2.667 1.2-2.667 2.667v9.333c0 0.733 0.293 1.4 0.787 1.893l12 12c0.48 0.48 1.147 0.773 1.88 0.773s1.4-0.293 1.88-0.787l9.333-9.333c0.493-0.48 0.787-1.147 0.787-1.88s-0.307-1.413-0.787-1.893zM9.467 9.067c-1.107 0-2-0.893-2-2s0.893-2 2-2c1.107 0 2 0.893 2 2s-0.893 2-2 2zM25.16 20.093l-5.693 5.693-5.693-5.693c-0.467-0.466-0.786-1.061-0.915-1.708s-0.063-1.319 0.19-1.928c0.253-0.61 0.681-1.131 1.23-1.497s1.195-0.561 1.855-0.56c0.92 0 1.76 0.373 2.36 0.987l0.973 0.96 0.973-0.973c0.626-0.626 1.475-0.978 2.36-0.978s1.734 0.352 2.36 0.978c0.626 0.626 0.978 1.475 0.978 2.36s-0.352 1.734-0.978 2.36z"></path>
</symbol>
<symbol id="icon-time" viewBox="0 0 32 32">
<path fill="none" stroke="#000" style="stroke: var(--color7, #000)" stroke-linejoin="miter" stroke-linecap="butt" stroke-miterlimit="4" stroke-width="0.7273" d="M28.727 14.545c0 7.832-6.349 14.182-14.182 14.182s-14.182-6.349-14.182-14.182c0-7.832 6.349-14.182 14.182-14.182s14.182 6.349 14.182 14.182z"></path>
<path fill="#fff" style="fill: var(--color4, #fff)" d="M26.182 19.636c3.213 0 5.818 2.605 5.818 5.818s-2.605 5.818-5.818 5.818c-3.213 0-5.818-2.605-5.818-5.818s2.605-5.818 5.818-5.818z"></path>
<path fill="#000" style="fill: var(--color7, #000)" opacity="0.75" d="M26.558 20.377c-0.125-0.009-0.25-0.014-0.375-0.014v-0.727c0.143 0 0.286 0.005 0.428 0.016l-0.054 0.725zM28.016 20.705c-0.233-0.090-0.473-0.163-0.716-0.217l0.159-0.71c0.279 0.063 0.553 0.145 0.819 0.249l-0.262 0.679zM29.012 21.221c-0.104-0.069-0.21-0.135-0.319-0.196l0.359-0.633c0.249 0.141 0.487 0.3 0.712 0.476l-0.447 0.574c-0.099-0.077-0.2-0.15-0.304-0.22v-0.001zM30.346 22.523c-0.144-0.204-0.303-0.398-0.475-0.579l0.527-0.502c0.196 0.207 0.378 0.429 0.543 0.662l-0.595 0.419zM30.887 23.506c-0.048-0.115-0.1-0.229-0.156-0.34l0.649-0.327c0.128 0.255 0.238 0.52 0.327 0.791l-0.691 0.228c-0.039-0.119-0.082-0.236-0.13-0.351v0zM31.273 25.329c-0.006-0.25-0.030-0.499-0.073-0.745l0.716-0.124c0.049 0.281 0.077 0.566 0.084 0.851l-0.728 0.018zM31.177 26.448c0.024-0.124 0.044-0.247 0.059-0.371l0.722 0.089c-0.035 0.284-0.091 0.564-0.167 0.84l-0.701-0.194c0.033-0.12 0.063-0.241 0.087-0.364v0zM30.485 28.178c0.134-0.211 0.252-0.432 0.353-0.66l0.665 0.295c-0.116 0.262-0.251 0.513-0.404 0.755l-0.615-0.389zM29.784 29.055c0.089-0.089 0.174-0.18 0.255-0.275l0.551 0.475c-0.093 0.108-0.191 0.213-0.292 0.314l-0.514-0.514z"></path>
<path fill="#000" style="fill: var(--color7, #000)" opacity="0.75" d="M26.184 20.364c-0.837 0-1.661 0.207-2.4 0.601s-1.368 0.965-1.833 1.661c-0.465 0.696-0.751 1.496-0.833 2.329s0.043 1.674 0.363 2.447c0.32 0.773 0.827 1.456 1.474 1.987s1.415 0.894 2.236 1.058 1.67 0.122 2.471-0.121c0.801-0.243 1.53-0.68 2.122-1.272l0.514 0.514c-0.677 0.677-1.51 1.177-2.425 1.455s-1.886 0.326-2.825 0.139c-0.939-0.187-1.817-0.602-2.557-1.209s-1.319-1.387-1.685-2.271-0.509-1.845-0.415-2.798c0.094-0.952 0.421-1.867 0.953-2.663s1.252-1.448 2.096-1.899c0.844-0.451 1.786-0.687 2.744-0.687v0.727z"></path>
<path fill="#000" style="fill: var(--color7, #000)" opacity="0.75" d="M25.82 21.818c0.096 0 0.189 0.038 0.257 0.106s0.106 0.161 0.106 0.257v3.789l2.362 1.35c0.081 0.049 0.14 0.128 0.164 0.22s0.011 0.189-0.036 0.272-0.125 0.143-0.216 0.169c-0.091 0.026-0.189 0.015-0.273-0.030l-2.545-1.455c-0.056-0.032-0.102-0.078-0.134-0.133s-0.049-0.118-0.049-0.182v-4c0-0.096 0.038-0.189 0.107-0.257s0.161-0.106 0.257-0.106v0z"></path>
<path fill="#000" style="fill: var(--color7, #000)" d="M13.455 18.182c0.201 0 0.364 0.163 0.364 0.364s-0.163 0.364-0.364 0.364c-0.201 0-0.364-0.163-0.364-0.364s0.163-0.364 0.364-0.364z"></path>
<path fill="#000" style="fill: var(--color7, #000)" d="M18.545 18.182c0.201 0 0.364 0.163 0.364 0.364s-0.163 0.364-0.364 0.364c-0.201 0-0.364-0.163-0.364-0.364s0.163-0.364 0.364-0.364z"></path>
<path fill="none" stroke="#000" style="stroke: var(--color7, #000)" stroke-linejoin="miter" stroke-linecap="butt" stroke-miterlimit="4" stroke-width="0.7273" d="M20.364 11.636h-3.636c-0.402 0-0.727 0.326-0.727 0.727v7.273c0 0.402 0.326 0.727 0.727 0.727h3.636c0.402 0 0.727-0.326 0.727-0.727v-7.273c0-0.402-0.326-0.727-0.727-0.727z"></path>
<path fill="none" stroke="#000" style="stroke: var(--color7, #000)" stroke-linejoin="miter" stroke-linecap="butt" stroke-miterlimit="4" stroke-width="0.7273" d="M17.818 10.182v-1.455c0-0.402-0.326-0.727-0.727-0.727h-7.636c-0.402 0-0.727 0.326-0.727 0.727v10.909c0 0.402 0.326 0.727 0.727 0.727h5.091"></path>
</symbol>
<symbol id="icon-company-1" viewBox="0 0 25 32">
<path fill="#202731" style="fill: var(--color8, #202731)" opacity="0.5" d="M24.034 12.458v3.094c0 6.298-5.141 11.417-11.483 11.417s-11.481-5.12-11.481-11.418v-3.094c0-6.298 5.14-11.396 11.481-11.396 6.298 0 11.412 5.157 11.483 11.396z"></path>
<path fill="#fff" style="fill: var(--color4, #fff)" d="M19.199 13.877l1.788-1.777c0.037-0.036 0.087-0.056 0.138-0.056s0.101 0.020 0.138 0.056l1.787 1.777c0.077 0.076 0.077 0.198 0 0.275l-1.787 1.775c-0.018 0.018-0.040 0.033-0.063 0.042s-0.049 0.015-0.075 0.015c-0.026 0-0.051-0.005-0.075-0.015s-0.045-0.024-0.063-0.042l-1.789-1.775c-0.036-0.037-0.056-0.086-0.056-0.137s0.020-0.101 0.056-0.137z"></path>
<path fill="#fff" style="fill: var(--color4, #fff)" d="M2.034 13.878l1.788-1.777c0.077-0.075 0.2-0.075 0.275 0l1.789 1.777c0.077 0.076 0.077 0.198 0 0.275l-1.788 1.775c-0.075 0.076-0.198 0.076-0.275 0l-1.788-1.775c-0.018-0.018-0.033-0.039-0.043-0.063s-0.015-0.049-0.015-0.074c0-0.026 0.005-0.051 0.015-0.074s0.024-0.045 0.043-0.063z"></path>
<path fill="#fff" style="fill: var(--color4, #fff)" d="M10.942 19.258c0.184 0.711 0.828 1.227 1.599 1.227 0.915 0 1.655-0.735 1.655-1.643 0-0.452-0.184-0.865-0.482-1.161l-3.208-3.542c-0.012-0.013-0.022-0.032-0.022-0.053 0-0.045 0.038-0.079 0.081-0.079h1.851c0.083 0 0.162 0.034 0.213 0.091l0.242 0.256 2.011 2.171c0.595 0.594 0.967 1.415 0.967 2.32 0 1.814-1.482 3.286-3.309 3.286-1.487 0-2.747-0.984-3.163-2.323h-1.602c0.45 2.204 2.413 3.87 4.767 3.87 2.688 0 4.866-2.164 4.866-4.832 0-1.338-0.545-2.545-1.425-3.419l-1.169-1.286c-0.008-0.007-0.014-0.015-0.018-0.024s-0.007-0.019-0.007-0.029c0-0.045 0.038-0.079 0.081-0.079h1.919c0.040-0 0.080 0.008 0.117 0.023s0.070 0.038 0.098 0.067l0.236 0.256c1.127 1.164 1.82 2.74 1.82 4.484 0 3.58-2.92 6.479-6.521 6.479s-6.517-2.896-6.517-6.475c0-0.319 0.266-0.577 0.588-0.577h3.936c0.161 0 0.278 0.128 0.291 0.289 0.009 0.24 0.043 0.483 0.103 0.703z"></path>
<path fill="#fff" style="fill: var(--color4, #fff)" d="M14.541 9.755c-0.162 0-0.281-0.13-0.29-0.291-0.010-0.239-0.045-0.482-0.104-0.702-0.181-0.711-0.831-1.231-1.602-1.231-0.914 0-1.655 0.735-1.655 1.644 0 0.45 0.187 0.86 0.485 1.159l2.659 2.943 0.194 0.211c0.013 0.016 0.023 0.034 0.023 0.056 0 0.042-0.038 0.076-0.081 0.076h-1.851c-0.040 0-0.080-0.008-0.116-0.024s-0.070-0.039-0.097-0.068l-0.239-0.252-1.661-1.785c-0.598-0.596-0.969-1.415-0.969-2.322 0-1.813 1.48-3.286 3.308-3.286 1.489 0 2.749 0.981 3.164 2.325h1.602c-0.45-2.208-2.414-3.87-4.767-3.87-2.686 0-4.866 2.164-4.866 4.831 0 1.335 0.543 2.543 1.424 3.419l0.626 0.688 0.194 0.211c0.014 0.016 0.025 0.034 0.025 0.056 0 0.042-0.038 0.076-0.081 0.076h-1.933c-0.084 0-0.161-0.034-0.214-0.092l-0.219-0.252c-0.937-1.109-1.474-2.545-1.474-4.1 0-3.58 2.921-6.478 6.521-6.478 3.602 0 6.517 2.894 6.517 6.47 0 0.322-0.261 0.584-0.585 0.584h-3.936z"></path>
<path fill="#202731" style="fill: var(--color8, #202731)" opacity="0.5" d="M3.957 31.735h0.236c0.081-0.082 0.142-0.127 0.184-0.127 0.059 0 0.235 0.18 0.714 0.18 0.74 0 1.222-0.498 1.222-1.079 0-0.508-0.249-0.783-0.805-1.003-0.501-0.196-0.808-0.278-0.808-0.606 0-0.225 0.182-0.381 0.45-0.381 0.253 0 0.433 0.119 0.533 0.352 0.069 0.161 0.080 0.304 0.253 0.304h0.138v-0.817h-0.188c-0.045 0.059-0.080 0.088-0.119 0.088-0.104 0-0.323-0.196-0.728-0.196-0.553 0-0.982 0.38-0.982 0.899 0 0.436 0.249 0.713 0.756 0.934 0.489 0.211 0.844 0.315 0.844 0.722 0 0.288-0.242 0.518-0.591 0.518-0.291 0-0.543-0.151-0.652-0.354-0.136-0.246-0.143-0.347-0.333-0.347h-0.125v0.912z"></path>
<path fill="#202731" style="fill: var(--color8, #202731)" opacity="0.5" d="M8.57 29.424l0.403 1.103h-0.818l0.416-1.103zM9.084 30.834l0.138 0.397c0.015 0.040 0.025 0.079 0.025 0.119 0 0.151-0.211 0.095-0.211 0.278v0.108h1.334v-0.108c0-0.122-0.059-0.132-0.139-0.157-0.114-0.044-0.146-0.116-0.211-0.282l-1.030-2.674c-0.023-0.053-0.042-0.088-0.080-0.088-0.036 0-0.054 0.016-0.085 0.035l-0.411 0.227c-0.054 0.032-0.084 0.060-0.084 0.088 0 0.010 0 0.022 0.010 0.042l0.088 0.214-0.796 2.066c-0.074 0.193-0.127 0.28-0.253 0.344-0.078 0.040-0.152 0.072-0.152 0.186v0.108h0.892v-0.108c0-0.201-0.239-0.151-0.239-0.286 0-0.023 0.016-0.089 0.048-0.18l0.117-0.328h1.041z"></path>
<path fill="#202731" style="fill: var(--color8, #202731)" opacity="0.5" d="M12.28 28.804c0.085-0.010 0.165-0.010 0.229-0.010 0.342 0 0.549 0.224 0.549 0.584 0 0.4-0.211 0.592-0.666 0.592-0.033 0-0.074 0-0.111-0.003l-0-1.164zM12.298 31.099v-0.859h0.152l0.807 1.496h0.943v-0.111c0-0.114-0.087-0.114-0.201-0.174-0.062-0.030-0.12-0.116-0.2-0.255l-0.349-0.648c-0.116-0.21-0.19-0.378-0.556-0.447 0.032 0 0.059 0.007 0.087 0.007 0.553 0 0.86-0.293 0.86-0.808 0-0.259-0.123-0.514-0.327-0.653-0.175-0.119-0.403-0.141-0.708-0.141h-1.513v0.104c0 0.111 0.074 0.127 0.145 0.18 0.084 0.060 0.094 0.13 0.094 0.246v2.166c0 0.119-0.010 0.183-0.094 0.249-0.071 0.055-0.145 0.067-0.145 0.177v0.108h1.247v-0.108c0-0.095-0.051-0.114-0.12-0.157-0.12-0.087-0.12-0.142-0.12-0.322v-0.050z"></path>
<path fill="#202731" style="fill: var(--color8, #202731)" opacity="0.5" d="M16.143 29.424l0.405 1.103h-0.818l0.413-1.103zM16.66 30.834l0.138 0.397c0.015 0.040 0.025 0.079 0.025 0.119 0 0.151-0.214 0.095-0.214 0.278v0.108h1.335v-0.108c0-0.122-0.059-0.132-0.138-0.157-0.114-0.044-0.146-0.116-0.212-0.282l-1.031-2.674c-0.025-0.053-0.041-0.088-0.078-0.088s-0.056 0.016-0.088 0.035l-0.408 0.227c-0.056 0.032-0.084 0.060-0.084 0.088 0 0.010 0 0.022 0.010 0.042l0.085 0.214-0.794 2.066c-0.074 0.193-0.13 0.28-0.253 0.344-0.080 0.040-0.152 0.072-0.152 0.186v0.108h0.892v-0.108c0-0.201-0.239-0.151-0.239-0.286 0-0.023 0.013-0.089 0.045-0.18l0.12-0.328h1.041z"></path>
<path fill="#202731" style="fill: var(--color8, #202731)" opacity="0.5" d="M19.001 31.735h0.233c0.084-0.082 0.143-0.127 0.185-0.127 0.058 0 0.233 0.18 0.712 0.18 0.741 0 1.225-0.498 1.225-1.079 0-0.508-0.249-0.783-0.807-1.003-0.501-0.196-0.81-0.278-0.81-0.606 0-0.225 0.185-0.381 0.45-0.381 0.253 0 0.433 0.119 0.534 0.352 0.068 0.161 0.078 0.304 0.253 0.304h0.138v-0.817h-0.187c-0.048 0.059-0.080 0.088-0.122 0.088-0.101 0-0.322-0.196-0.727-0.196-0.552 0-0.98 0.38-0.98 0.899 0 0.436 0.249 0.713 0.756 0.934 0.487 0.211 0.841 0.315 0.841 0.722 0 0.288-0.239 0.518-0.588 0.518-0.291 0-0.543-0.151-0.655-0.354-0.133-0.246-0.142-0.347-0.332-0.347h-0.123v0.912z"></path>
</symbol>
<symbol id="icon-company-2" viewBox="0 0 253 32">
<path d="M55.377 22.178h-5.96c0-1.867-0.524-1.84-1.018-1.84s-0.71 0.593-0.71 1.127v2.255c0 1.159 0.465 1.781 1.576 1.781h5.836c1.389 0 2.131-1.069 2.131-2.405v-3.738h6.947v12.639h-18.065c-1.853 0-3.335-0.872-3.89-2.002-0.556 1.13-2.038 2.002-3.89 2.002h-5.281v-6.357h2.223c1.389 0 1.981-0.988 1.981-1.946v-3.538c0-1.569-0.87-2.787-2.722-3.134 1.854-0.35 2.722-1.569 2.722-3.136v-3.539c0-0.957-0.592-1.947-1.981-1.947h-2.223v-6.356h5.281c1.853 0 3.335 0.871 3.89 2.002 0.556-1.133 2.038-2.002 3.89-2.002h18.065v12.639h-6.947v-3.738c0-1.335-0.741-2.403-2.131-2.403h-5.836c-1.111 0-1.576 0.623-1.576 1.78v2.255c0 0.534 0.217 1.127 0.71 1.127 0.494 0 1.018 0.030 1.018-1.84h5.96v10.312zM164.973 22.178h-5.96c0-1.867-0.525-1.84-1.021-1.84-0.493 0-0.709 0.593-0.709 1.127v2.255c0 1.159 0.464 1.781 1.574 1.781h5.836c1.389 0 2.131-1.069 2.131-2.405v-3.738h6.949v12.639h-18.066c-1.851 0-3.334-0.872-3.89-2.002-0.556 1.13-2.039 2.002-3.89 2.002h-5.283v-6.357h2.223c1.389 0 1.981-0.988 1.981-1.946v-3.538c0-1.569-0.868-2.787-2.722-3.134 1.854-0.35 2.722-1.569 2.722-3.136v-3.539c0-0.957-0.591-1.947-1.981-1.947h-2.223v-6.356h5.283c1.851 0 3.334 0.871 3.89 2.002 0.556-1.133 2.039-2.002 3.89-2.002h18.066v12.639h-6.949v-3.738c0-1.335-0.741-2.403-2.131-2.403h-5.836c-1.11 0-1.574 0.623-1.574 1.78v2.255c0 0.534 0.216 1.127 0.709 1.127 0.496 0 1.021 0.030 1.021-1.84h5.96v10.312zM31.128 14.684v-12.639h-18.065c-1.853 0-3.335 0.871-3.892 2.002-0.556-1.133-2.038-2.002-3.89-2.002h-5.281v6.356h2.223c1.389 0 1.981 0.99 1.981 1.947v3.539c0 1.567-0.868 2.785-2.722 3.136 1.854 0.348 2.722 1.566 2.722 3.134v3.538c0 0.957-0.591 1.946-1.981 1.946h-2.223v6.357h5.281c1.853 0 3.334-0.872 3.89-2.002 0.556 1.13 2.039 2.002 3.892 2.002h6.825v-6.497h-3.676c-1.111 0-1.574-0.623-1.574-1.781v-2.255c0-0.534 0.216-1.127 0.71-1.127s1.018-0.027 1.018 1.84h5.96v-10.311h-5.96c0 1.869-0.525 1.84-1.018 1.84-0.494 0-0.71-0.594-0.71-1.127v-2.255c0-1.157 0.463-1.78 1.574-1.78h5.836c1.389 0 2.131 1.068 2.131 2.403v3.738h6.949zM82.763 10.433c0-1.229 0.463-1.89 1.574-1.89h2.779c2.347 0 3.83 0.724 3.83 2.74s-1.483 2.74-3.83 2.74h-2.779c-1.111 0-1.574-0.662-1.574-1.89v-1.7zM81.188 2.047c-1.853 0-3.335 0.871-3.892 2.002-0.555-1.133-2.038-2.002-3.89-2.002h-5.281v6.356h2.224c1.388 0 1.98 0.99 1.98 1.947v3.539c0 1.567-0.87 2.785-2.722 3.136 1.853 0.348 2.722 1.566 2.722 3.134v3.538c0 0.957-0.591 1.946-1.98 1.946h-2.224v6.357h5.281c1.853 0 3.335-0.872 3.89-2.002 0.556 1.13 2.039 2.002 3.892 2.002h6.825v-6.497h-3.676c-1.111 0-1.574-0.623-1.574-1.781v-2.255c0-0.535 0.216-1.127 0.71-1.127h3.643c2.069 0 2.902 1.467 2.902 3.961v2.047c0 2.848 1.761 5.428 6.486 5.428h6.762v-6.851h-1.111c-1.389 0-2.038-0.357-2.038-1.959v-1.069c0-1.956-1.389-4.36-3.429-4.804 2.409-0.981 4.447-2.316 4.447-7.032 0-4.895-3.242-8.011-7.319-8.011l-12.628-0.003zM119.945 10.433c0-1.229 0.463-1.89 1.576-1.89h2.779c2.347 0 3.83 0.724 3.83 2.74s-1.483 2.74-3.83 2.74h-2.779c-1.111 0-1.576-0.662-1.576-1.89v-1.7zM118.37 2.047c-1.853 0-3.335 0.871-3.89 2.002-0.556-1.133-2.038-2.002-3.89-2.002h-5.283v6.356h2.224c1.389 0 1.981 0.99 1.981 1.947v3.539c0 1.567-0.87 2.785-2.722 3.136 1.853 0.348 2.722 1.566 2.722 3.134v3.538c0 0.957-0.591 1.946-1.981 1.946h-2.224v6.357h5.281c1.853 0 3.335-0.872 3.89-2.002 0.556 1.13 2.038 2.002 3.89 2.002h6.825v-6.497h-3.674c-1.111 0-1.576-0.623-1.576-1.781v-2.255c0-0.535 0.217-1.127 0.71-1.127h3.643c2.069 0 2.902 1.467 2.902 3.961v2.047c0 2.848 1.762 5.428 6.486 5.428h6.765v-6.851h-1.113c-1.389 0-2.039-0.357-2.039-1.959v-1.069c0-1.956-1.389-4.36-3.426-4.804 2.408-0.981 4.447-2.316 4.447-7.032 0-4.895-3.244-8.011-7.319-8.011-4.077-0.003-12.63-0.003-12.63-0.003zM192.766 10.433c0-1.229 0.461-1.89 1.575-1.89h2.777c2.346 0 3.83 0.724 3.83 2.74s-1.484 2.74-3.83 2.74h-2.777c-1.113 0-1.575-0.662-1.575-1.89v-1.7zM191.188 2.047c-1.851 0-3.333 0.871-3.891 2.002-0.556-1.133-2.038-2.002-3.891-2.002h-5.278v6.356h2.221c1.388 0 1.981 0.99 1.981 1.947v3.539c0 1.567-0.871 2.785-2.722 3.136 1.851 0.348 2.722 1.566 2.722 3.134v3.538c0 0.957-0.591 1.946-1.981 1.946h-2.221v6.357h5.278c1.853 0 3.335-0.872 3.891-2.002 0.557 1.13 2.040 2.002 3.891 2.002h6.826v-6.497h-3.673c-1.113 0-1.575-0.623-1.575-1.781v-2.255c0-0.535 0.212-1.127 0.709-1.127h3.641c2.070 0 2.904 1.467 2.904 3.961v2.047c0 2.848 1.758 5.428 6.486 5.428h6.762v-6.851h-1.11c-1.389 0-2.040-0.357-2.040-1.959v-1.069c0-1.956-1.389-4.36-3.429-4.804 2.408-0.981 4.448-2.316 4.448-7.032 0-4.895-3.242-8.011-7.32-8.011-4.074-0.003-12.63-0.003-12.63-0.003zM249.942 11.689c0.556 2.516 1.297 3.339 2.69 4.219-1.393 0.878-2.134 1.703-2.69 4.218-2.319 10.196-11.315 11.692-16.972 11.692-5.656 0-14.651-1.495-16.968-11.692-0.556-2.514-1.3-3.339-2.69-4.218 1.389-0.88 2.134-1.703 2.69-4.219 2.319-10.194 11.313-11.689 16.968-11.689 5.657 0 14.653 1.493 16.972 11.689zM232.97 7.030c-2.685 0-5.62 1.84-5.62 5.399 0 1.632 0.803 2.7 2.193 3.324-1.389 0.621-2.193 1.69-2.193 3.323 0 3.56 2.936 5.399 5.62 5.399 2.686 0 5.619-1.84 5.619-5.399 0-1.632-0.802-2.701-2.191-3.323 1.389-0.624 2.191-1.692 2.191-3.324 0-3.56-2.931-5.399-5.619-5.399z"></path>
</symbol>
<symbol id="icon-company-3" viewBox="0 0 182 32">
<path d="M47.683 24.23h-12.79l4.305-16.456h2.727l-3.588 13.724h10.060l-0.714 2.732z"></path>
<path d="M63.432 24.229h-13.124l4.301-16.457h13.125l-0.718 2.732h-10.409l-0.959 3.672h9.884l-0.717 2.733h-9.881l-1.2 4.586h10.414l-0.715 2.733z"></path>
<path d="M78.639 24.23h-8.193c-1.315 0-2.246-0.341-2.768-1.014-0.542-0.697-0.636-1.739-0.282-3.097l2.177-8.325c0.687-2.63 2.445-4.021 5.082-4.021h8.192c1.315 0 2.246 0.341 2.769 1.012 0.542 0.698 0.636 1.74 0.281 3.097l-2.176 8.326c-0.687 2.63-2.445 4.021-5.083 4.021v0.001zM74.035 10.505c-0.411-0.032-0.82 0.089-1.146 0.34s-0.548 0.613-0.621 1.017l-2.188 8.372c-0.062 0.154-0.089 0.321-0.077 0.487s0.060 0.327 0.143 0.472c0.121 0.117 0.267 0.205 0.427 0.258s0.33 0.070 0.497 0.048h8.192c0.411 0.032 0.82-0.089 1.146-0.34s0.548-0.613 0.621-1.017l2.188-8.371c0.086-0.149 0.125-0.32 0.113-0.492s-0.075-0.336-0.181-0.471-0.25-0.237-0.415-0.291c-0.164-0.054-0.341-0.058-0.507-0.011l-8.192-0.001z"></path>
<path d="M102.649 24.229h-1.369l-9.786-12.323-3.221 12.323h-2.412l4.305-16.456h2.249l0.101 0.132 8.954 11.612 3.072-11.745h2.412l-4.305 16.457z"></path>
<path d="M140.155 24.23h-2.86l-1.032-7.182h-6.242l-1.882 7.182h-2.711l4.302-16.458h10.679c1.316 0 2.248 0.341 2.769 1.012 0.541 0.698 0.636 1.74 0.28 3.097l-0.297 1.142c-0.604 2.309-1.962 3.637-4.042 3.951l1.035 7.254zM130.735 14.314h7.965c0.411 0.032 0.819-0.089 1.146-0.34s0.547-0.613 0.621-1.017l0.312-1.189c0.085-0.149 0.124-0.32 0.113-0.492s-0.076-0.335-0.182-0.471c-0.106-0.136-0.25-0.237-0.414-0.291s-0.34-0.058-0.507-0.012h-8.060l-0.993 3.811z"></path>
<path d="M154.698 24.229h-11.596l4.305-16.458h11.499c1.664 0 2.753 0.361 3.328 1.101 0.609 0.785 0.668 2.018 0.181 3.878l-1.764 6.747c-0.879 3.36-2.603 4.73-5.956 4.73l0.002 0.001zM146.526 21.495h8.792c1.65 0 2.219-0.453 2.651-2.108l1.758-6.725c0.248-0.949 0.257-1.479 0.030-1.773-0.207-0.266-0.661-0.384-1.473-0.384h-8.884l-2.874 10.991z"></path>
<path d="M174.833 24.23h-8.193c-1.314 0-2.245-0.341-2.768-1.013-0.541-0.698-0.636-1.739-0.281-3.097l2.176-8.325c0.689-2.631 2.446-4.022 5.082-4.022h8.194c1.314 0 2.246 0.342 2.768 1.013 0.541 0.698 0.636 1.739 0.281 3.097l-2.177 8.326c-0.688 2.63-2.445 4.021-5.083 4.021h0.001zM170.226 10.506c-0.411-0.033-0.819 0.088-1.145 0.339s-0.548 0.613-0.621 1.017l-2.189 8.371c-0.062 0.155-0.089 0.321-0.078 0.487s0.060 0.328 0.143 0.473c0.121 0.117 0.267 0.204 0.427 0.257s0.33 0.069 0.496 0.048h8.194c0.411 0.032 0.819-0.089 1.146-0.34s0.548-0.613 0.622-1.017l2.188-8.371c0.062-0.154 0.089-0.321 0.078-0.487s-0.059-0.328-0.143-0.472c-0.121-0.117-0.268-0.205-0.428-0.258s-0.33-0.069-0.497-0.048l-8.193-0.001z"></path>
<path d="M122.307 24.229h-2.877l1.881-7.239h-10.755l-1.876 7.239h-2.877l3.229-12.456c0.708-2.709 2.445-4.081 5.16-4.081h8.193c1.339 0 2.295 0.351 2.832 1.043 0.559 0.719 0.656 1.785 0.295 3.166l-3.204 12.328zM111.302 14.096h10.76l0.609-2.346c0.054-0.143 0.078-0.297 0.068-0.45s-0.049-0.303-0.12-0.439c-0.116-0.103-0.253-0.181-0.401-0.228s-0.305-0.063-0.46-0.047h-8.191c-0.394-0.039-0.788 0.074-1.102 0.314-0.314 0.241-0.524 0.591-0.587 0.98l-0.576 2.215z"></path>
<path d="M23.981 23.919c-9.873-2.626-14.163-6.688-14.163-6.688s4.23 7.106 10.871 9.908l0.372 0.155 0.108 0.038c0.124 0.047 0.248 0.094 0.373 0.137 0.094 0.036 0.198 0.041 0.295 0.016s0.185-0.081 0.249-0.158l2.173-2.618c0.053-0.065 0.089-0.142 0.103-0.225s0.007-0.167-0.021-0.246c-0.028-0.079-0.076-0.149-0.14-0.204s-0.14-0.093-0.222-0.11z"></path>
<path d="M26.561 13.563c-0.535-0.069-1.074-0.106-1.613-0.112-3.997 0-14.586 1.903-14.586 1.903l16.181 2.266c0.026-0.011 0.050-0.026 0.072-0.044 0.056-0.042 0.101-0.097 0.133-0.16s0.048-0.131 0.049-0.201c0.050-0.479 0.204-2.132 0.265-3.027 0.009-0.148-0.037-0.294-0.13-0.41s-0.226-0.194-0.373-0.218z"></path>
<path d="M10.361 12.934c5.031-4.587 13.692-6.212 14.578-6.395 0.079-0.015 0.153-0.048 0.215-0.098s0.112-0.114 0.144-0.187c0.032-0.073 0.045-0.153 0.039-0.232s-0.032-0.156-0.076-0.223c-0.317-0.504-1.525-2.142-1.991-2.717-0.064-0.078-0.15-0.135-0.248-0.163s-0.201-0.027-0.297 0.005l-0.067 0.024-0.037 0.014v-0.011l-0.514 0.193c-6.261 2.373-10.092 7.436-11.746 9.792z"></path>
<path d="M7.825 12.937c0.114-0.763 0.28-1.518 0.494-2.259 1.675-4.861 5.339-8.487 6.835-9.818 0.079-0.068 0.133-0.16 0.157-0.261s0.013-0.207-0.028-0.303c-0.042-0.093-0.112-0.171-0.201-0.223s-0.192-0.073-0.294-0.063l-3.169 0.26c-0.111 0.005-0.221 0.027-0.324 0.067-0.056 0.019-0.104 0.054-0.139 0.101l-0.525 0.674c-0.153 0.196-0.305 0.41-0.436 0.614-0.022 0.029-0.042 0.059-0.059 0.091l-0.265 0.434c-1.681 3.299-2.391 7.003-2.046 10.686z"></path>
<path d="M6.226 13.171c-1.060-2.112-1.675-4.417-1.809-6.774l-0.012-0.392c-0.003-0.113-0.041-0.223-0.109-0.313s-0.164-0.157-0.272-0.191c-0.11-0.032-0.227-0.028-0.334 0.010s-0.2 0.11-0.264 0.204c-0.529 0.906-0.973 1.858-1.325 2.845-0.026 0.066-0.039 0.136-0.037 0.206s0.017 0.14 0.046 0.205c0.796 1.856 4.117 4.198 4.117 4.198z"></path>
<path d="M1.665 20.717c-0.041 0.055-0.070 0.117-0.086 0.184s-0.019 0.135-0.008 0.203c0.145 1.045 0.392 2.073 0.736 3.070 0.043 0.108 0.12 0.198 0.221 0.256s0.217 0.082 0.333 0.066c0.316-0.006 0.44-0.476 0.552-0.797 0.711-2.237 1.627-4.404 2.737-6.474 0 0-3.139 1.682-4.482 3.489z"></path>
<path d="M14.496 29.56l-0.232-0.245-0.022-0.024c-3.326-3.162-5.553-7.297-6.356-11.805 0 0-1.258 9.116 3.512 14.406 0.045 0.035 0.096 0.062 0.151 0.076v0l0.147 0.029 3.607-0.578 0.083-0.024c0.11-0.048 0.198-0.136 0.245-0.246 0.041-0.091 0.053-0.193 0.034-0.292s-0.068-0.189-0.14-0.258c-0.227-0.218-0.582-0.563-1.029-1.042z"></path>
<path d="M5.809 14.991l-1.629-0.35c-1.023-0.198-1.996-0.594-2.865-1.167-0.050-0.042-0.098-0.086-0.143-0.134-0.063-0.069-0.144-0.119-0.234-0.146s-0.185-0.030-0.276-0.008h-0.022c-0.092 0.026-0.176 0.076-0.242 0.145s-0.113 0.154-0.136 0.246c-0.157 0.84-0.241 1.691-0.253 2.545 0.016 0.064 0.046 0.124 0.087 0.175s0.093 0.094 0.152 0.123l0.16 0.047 0.096-0.013c0.766-0.11 2.905-0.767 3.791-1.045l1.515-0.421z"></path>
</symbol>
<symbol id="icon-git" viewBox="0 0 30 32">
<path fill="#03a8b7" style="fill: var(--color2, #03a8b7)" d="M24.586 22.063c-0.647 0.003-1.286 0.14-1.88 0.405s-1.13 0.651-1.576 1.135l-11.702-6.061c0.288-0.903 0.288-1.879 0-2.782l11.721-6.171c0.84 0.916 1.978 1.476 3.194 1.571s2.423-0.281 3.386-1.055 1.614-1.892 1.825-3.135c0.211-1.243-0.031-2.524-0.681-3.592s-1.66-1.849-2.834-2.189c-1.175-0.34-2.429-0.217-3.521 0.347s-1.941 1.528-2.384 2.704c-0.443 1.176-0.448 2.481-0.013 3.661l-11.606 6.111c-0.627-0.793-1.475-1.367-2.429-1.642s-1.967-0.237-2.899 0.107c-0.933 0.344-1.74 0.979-2.31 1.817s-0.877 1.838-0.877 2.863c0 1.025 0.306 2.025 0.877 2.863s1.377 1.472 2.31 1.817 1.945 0.382 2.899 0.107c0.954-0.275 1.803-0.848 2.429-1.642l11.577 6.032c-0.196 0.544-0.296 1.119-0.298 1.699 0 0.983 0.282 1.943 0.809 2.76s1.277 1.454 2.154 1.83 1.842 0.474 2.773 0.283c0.931-0.192 1.786-0.665 2.458-1.36s1.128-1.58 1.314-2.544c0.185-0.964 0.090-1.963-0.273-2.871s-0.979-1.684-1.768-2.23c-0.789-0.546-1.717-0.837-2.667-0.837h-0.010zM24.586 2.19c0.57 0 1.126 0.175 1.6 0.502s0.843 0.793 1.061 1.338c0.218 0.545 0.275 1.144 0.164 1.722s-0.385 1.109-0.788 1.526-0.916 0.701-1.475 0.816c-0.559 0.115-1.138 0.056-1.664-0.17s-0.976-0.608-1.293-1.098-0.485-1.067-0.485-1.656c0-0.791 0.303-1.549 0.843-2.108s1.273-0.873 2.037-0.873zM4.877 19.082c-0.57 0-1.126-0.175-1.6-0.502s-0.843-0.793-1.061-1.338-0.275-1.144-0.164-1.722c0.111-0.578 0.385-1.109 0.788-1.526s0.916-0.701 1.475-0.816 1.138-0.056 1.664 0.17c0.526 0.226 0.976 0.608 1.292 1.098s0.485 1.067 0.485 1.656c0 0.791-0.303 1.549-0.843 2.108s-1.273 0.873-2.036 0.873zM24.586 30.013c-0.57 0-1.126-0.175-1.6-0.502s-0.843-0.793-1.061-1.338-0.275-1.144-0.164-1.722c0.111-0.578 0.385-1.109 0.788-1.526s0.916-0.701 1.475-0.816c0.559-0.115 1.138-0.056 1.664 0.17s0.976 0.608 1.292 1.098c0.316 0.49 0.485 1.067 0.485 1.656 0 0.791-0.303 1.549-0.843 2.108s-1.273 0.873-2.036 0.873z"></path>
</symbol>
<symbol id="icon-arrow-right" viewBox="0 0 46 32">
<path fill="#f8f8f8" style="fill: var(--color9, #f8f8f8)" d="M29.904 3.65c-0.214-0.214-0.335-0.505-0.335-0.808s0.12-0.594 0.335-0.808c0.214-0.214 0.505-0.335 0.808-0.335s0.594 0.12 0.808 0.335l12.931 12.931c0.214 0.214 0.335 0.505 0.335 0.808s-0.12 0.594-0.335 0.808l-12.931 12.931c-0.214 0.214-0.505 0.335-0.808 0.335s-0.594-0.12-0.808-0.335c-0.214-0.214-0.335-0.505-0.335-0.808s0.12-0.594 0.335-0.808l10.98-10.98-39.267 0.002c-0.304 0-0.595-0.121-0.809-0.335s-0.335-0.506-0.335-0.809c0-0.304 0.121-0.595 0.335-0.809s0.506-0.335 0.809-0.335l39.267 0.002-10.98-10.98z"></path>
</symbol>
<symbol id="icon-company-4-2" viewBox="0 0 248 32">
<path d="M102.843 22.178c-0.042 2.799 0.691 5.211 3.755 5.211 2.287 0 3.71-1.079 4.013-3.102h7.595c-0.259 2.799-2.029 4.825-4.101 6.031-1.9 1.204-4.316 1.679-6.863 1.679-8.675 0-12.127-3.706-12.127-12.192 0-6.849 5.136-10.727 11.654-10.727 8.806 0 11.61 5.041 11.61 13.098h-15.537zM110.612 17.782c0-1.163-0.347-2.327-0.994-3.231s-1.597-1.466-2.848-1.377c-2.848 0.128-3.538 2.154-3.755 4.608h7.597zM0 31.352v-31.104h14.328c7.639 0 12.646 2.456 12.646 9.994 0 7.539-5.007 9.995-12.646 9.995h-5.697v11.113l-8.631 0.001zM13.077 14.207c3.41-0.129 4.835-1.68 4.835-3.964 0-2.281-1.425-3.834-4.835-3.962h-4.444v7.928l4.444-0.001zM52.469 20.539c0 7.968-5.827 11.458-12.603 11.458-6.775 0-12.602-3.49-12.602-11.458 0-7.971 5.827-11.46 12.602-11.46 6.776 0 12.603 3.488 12.603 11.46zM39.866 27.26c3.454 0 4.187-3.663 4.187-6.719 0-3.059-0.733-6.721-4.187-6.721-3.451 0-4.185 3.663-4.185 6.721 0 3.057 0.734 6.719 4.185 6.719zM66.755 16.402h7.767c-0.345-5.988-5.093-7.323-10.229-7.323-4.316 0-10.012 1.466-10.012 6.806 0 7.84 12.818 5.557 12.818 9.392 0 1.378-1.164 1.982-2.76 1.982-0.776 0-1.467-0.432-1.942-0.99-0.473-0.561-0.69-1.293-0.561-1.94h-7.769c-0.044 6.591 5.135 7.669 10.443 7.669 4.963 0 10.359-1.464 10.359-7.195 0-3.532-1.77-5.127-4.36-5.944-5.135-1.595-8.458-1.509-8.458-3.101 0-1.252 0.734-1.94 1.942-1.94 1.123 0 1.812 0.302 2.245 0.775 0.387 0.432 0.517 1.076 0.517 1.809zM80.27 9.725h-4.23v5.171h4.229v9.694c-0.431 6.633 2.935 7.41 8.501 7.41 1.21 0 2.548-0.087 4.403-0.433v-4.867c-0.948 0.129-2.071 0.129-3.149 0.129-1.898 0-1.556-2.801-1.556-3.36v-8.573h4.749v-5.171h-4.749v-6.376l-8.198 3.102v3.275zM121.92 9.507v21.694h4.112v-21.694h-4.112zM121.531 0v4.453h4.893v-4.453h-4.893zM132.63 9.507l-3.726-0.131v3.069l3.724-0.045v13.789c0 2.893 0.218 2.981 0.952 4.017 0.693 0.951 1.778 1.298 2.425 1.428 0.999 0.173 1.776 0.216 2.772 0.216 0.952 0 1.862-0.218 2.815-0.262v-3.154c-0.653 0.172-1.517 0.257-2.166 0.257-1.472 0-2.685-0.736-2.685-2.289v-14.004l5.023 0.045v-3.069l-5.023 0.129v-5.92l-4.112 1.297v4.625zM157.912 17.806c0-3.761-0.214-5.965-4.589-5.965-2.079 0-4.026 1.211-4.071 3.459h-4.33c0.214-4.754 3.942-6.439 8.227-6.439 4.459 0 8.877 1.339 8.877 7.39v10.372c0 0.949 0.043 2.765 0.174 4.58h-2.773c-0.39 0-1.126 0.215-1.169-0.302-0.086-0.993-0.174-1.944-0.214-2.94h-0.088c-1.34 2.723-3.765 3.894-6.753 3.894-3.766 0-7.577-1.947-7.577-6.182 0-6.095 5.414-7.866 10.566-7.866h3.72zM153.802 20.657c-2.513 0.131-5.848 1.037-5.848 4.192 0 2.678 1.863 4.019 4.288 4.019 4.849 0 5.757-4.192 5.67-8.212l-4.11 0.001zM166.116 0v31.203h4.113v-31.203h-4.113zM175.342 9.507v21.694h4.115v-21.694h-4.115zM174.954 0v4.453h4.893v-4.453h-4.893zM197.453 17.806c0-3.761-0.214-5.965-4.587-5.965-2.079 0-4.026 1.211-4.068 3.459h-4.333c0.217-4.754 3.942-6.439 8.227-6.439 4.459 0 8.877 1.339 8.877 7.39v10.372c0 0.949 0.043 2.765 0.173 4.58h-2.771c-0.39 0-1.126 0.215-1.17-0.302-0.085-0.993-0.173-1.944-0.213-2.94h-0.088c-1.34 2.723-3.766 3.894-6.755 3.894-3.765 0-7.577-1.947-7.577-6.182 0-6.095 5.415-7.866 10.566-7.866h3.72zM193.341 20.657c-2.51 0.131-5.845 1.037-5.845 4.192 0 2.678 1.863 4.019 4.288 4.019 4.849 0 5.757-4.192 5.668-8.212l-4.111 0.001zM209.849 12.707h-0.001v-3.2h-4.024v21.695h4.113v-11.799c0-4.234 1.126-5.185 1.732-5.79 1.729-1.73 3.985-1.601 3.985-1.601 3.462 0 4.975 1.947 4.975 5.534v13.655h4.115v-14.996c0-6.958-6.713-7.347-8.227-7.347-2.163 0-5.198 1.124-6.581 3.847h-0.088zM232.327 21.133c-0.303 3.803 1.255 7.736 5.454 7.736 3.203 0 4.806-1.253 5.281-4.41h4.33c-0.647 4.927-4.459 7.393-9.656 7.393-6.969 0-9.741-4.927-9.741-11.325 0-6.354 3.203-11.669 10.087-11.669 6.495 0.129 9.569 4.235 9.569 10.241v2.031l-15.325 0.001zM243.325 18.281c0.086-3.632-1.561-6.441-5.544-6.441-3.421 0-5.454 2.896-5.454 6.441h10.998z"></path>
</symbol>
<symbol id="icon-pdf" viewBox="0 0 32 32">
<path fill="#909090" style="fill: var(--color10, #909090)" d="M24.1 2.072l5.564 5.8v22.056h-20.785v0.072h20.856v-22.055l-5.635-5.873z"></path>
<path fill="#fff" style="fill: var(--color4, #fff)" d="M24.031 2h-15.223v27.928h20.856v-22.055l-5.634-5.873z"></path>
<path fill="#7a7b7c" style="fill: var(--color11, #7a7b7c)" d="M8.655 3.5h-6.39v6.827h20.1v-6.827h-13.71z"></path>
<path fill="#03a8b7" style="fill: var(--color2, #03a8b7)" d="M22.472 10.211h-20.077v-6.832h20.077v6.832z"></path>
<path fill="#464648" style="fill: var(--color12, #464648)" d="M9.052 4.534h-1.307v4.8h1.028v-1.619l0.227 0.013c0.221-0.004 0.439-0.043 0.647-0.117 0.182-0.063 0.35-0.162 0.493-0.291 0.145-0.123 0.26-0.279 0.335-0.454 0.1-0.292 0.136-0.601 0.105-0.908-0.006-0.219-0.045-0.436-0.114-0.644-0.063-0.15-0.157-0.285-0.275-0.397s-0.259-0.198-0.412-0.253c-0.133-0.048-0.27-0.083-0.409-0.104-0.106-0.016-0.212-0.025-0.319-0.026h0.001zM8.862 6.828h-0.089v-1.48h0.193c0.085-0.006 0.171 0.007 0.25 0.038s0.151 0.080 0.209 0.143c0.12 0.161 0.185 0.357 0.183 0.558 0 0.246 0 0.469-0.222 0.626-0.16 0.088-0.342 0.128-0.524 0.114z"></path>
<path fill="#464648" style="fill: var(--color12, #464648)" d="M12.533 4.521c-0.111 0-0.219 0.008-0.295 0.011l-0.238 0.006h-0.78v4.8h0.918c0.351 0.010 0.7-0.050 1.028-0.175 0.264-0.105 0.498-0.273 0.68-0.491 0.177-0.22 0.305-0.475 0.373-0.749 0.079-0.31 0.117-0.629 0.114-0.949 0.019-0.378-0.010-0.757-0.087-1.127-0.073-0.273-0.21-0.524-0.4-0.733-0.149-0.169-0.331-0.305-0.535-0.4-0.175-0.081-0.36-0.141-0.549-0.178-0.075-0.012-0.152-0.018-0.228-0.017l-0.001 0.002zM12.352 8.456h-0.1v-3.064h0.013c0.206-0.024 0.415 0.013 0.6 0.107 0.136 0.108 0.246 0.245 0.324 0.4 0.084 0.163 0.132 0.343 0.142 0.526 0.009 0.22 0 0.4 0 0.549 0.004 0.172-0.007 0.343-0.033 0.513-0.031 0.174-0.088 0.343-0.169 0.5-0.092 0.146-0.216 0.269-0.363 0.36-0.123 0.080-0.269 0.117-0.416 0.106z"></path>
<path fill="#464648" style="fill: var(--color12, #464648)" d="M17.43 4.538h-2.43v4.8h1.028v-1.904h1.3v-0.892h-1.3v-1.112h1.4v-0.892z"></path>
<path fill="#03a8b7" style="fill: var(--color2, #03a8b7)" d="M21.781 20.255c0 0 3.188-0.578 3.188 0.511s-1.975 0.646-3.188-0.511zM19.424 20.338c-0.506 0.112-1 0.276-1.473 0.489l0.4-0.9c0.4-0.9 0.815-2.127 0.815-2.127 0.477 0.803 1.033 1.558 1.658 2.252-0.472 0.070-0.939 0.166-1.4 0.288v-0.002zM18.162 13.838c0-0.949 0.307-1.208 0.546-1.208s0.508 0.115 0.517 0.939c-0.078 0.829-0.251 1.645-0.517 2.434-0.364-0.662-0.552-1.406-0.547-2.162l0.001-0.003zM13.513 24.354c-0.978-0.585 2.051-2.386 2.6-2.444-0.003 0.001-1.576 3.056-2.6 2.444zM25.9 20.895c-0.010-0.1-0.1-1.207-2.070-1.16-0.821-0.013-1.642 0.045-2.453 0.173-0.786-0.792-1.462-1.684-2.012-2.655 0.346-1.001 0.556-2.043 0.623-3.1-0.029-1.2-0.316-1.888-1.236-1.878s-1.054 0.815-0.933 2.013c0.118 0.805 0.342 1.591 0.665 2.338 0 0-0.425 1.323-0.987 2.639s-0.946 2.006-0.946 2.006c-0.977 0.318-1.897 0.791-2.725 1.4-0.824 0.767-1.159 1.356-0.725 1.945 0.374 0.508 1.683 0.623 2.853-0.91 0.622-0.792 1.19-1.624 1.7-2.492 0 0 1.784-0.489 2.339-0.623s1.226-0.24 1.226-0.24c0 0 1.629 1.639 3.2 1.581s1.495-0.939 1.485-1.035z"></path>
<path fill="#909090" style="fill: var(--color10, #909090)" d="M23.954 2.077v5.873h5.633l-5.633-5.873z"></path>
<path fill="#f4f4f4" style="fill: var(--color13, #f4f4f4)" d="M24.031 2v5.873h5.633l-5.633-5.873z"></path>
<path fill="#fff" style="fill: var(--color4, #fff)" d="M8.975 4.457h-1.307v4.8h1.032v-1.618l0.228 0.013c0.221-0.004 0.439-0.043 0.647-0.117 0.182-0.063 0.35-0.162 0.493-0.291 0.144-0.123 0.258-0.279 0.332-0.454 0.1-0.292 0.136-0.601 0.105-0.908-0.006-0.219-0.045-0.436-0.114-0.644-0.063-0.15-0.157-0.285-0.275-0.397s-0.259-0.198-0.412-0.253c-0.133-0.048-0.271-0.084-0.411-0.105-0.106-0.016-0.212-0.025-0.319-0.026h0.001zM8.785 6.751h-0.089v-1.48h0.194c0.085-0.006 0.171 0.007 0.25 0.038s0.151 0.080 0.209 0.143c0.12 0.161 0.185 0.357 0.183 0.558 0 0.246 0 0.469-0.222 0.626-0.16 0.088-0.342 0.128-0.524 0.114z"></path>
<path fill="#fff" style="fill: var(--color4, #fff)" d="M12.456 4.444c-0.111 0-0.219 0.008-0.295 0.011l-0.235 0.006h-0.78v4.8h0.918c0.351 0.010 0.7-0.050 1.028-0.175 0.264-0.105 0.498-0.273 0.68-0.491 0.177-0.22 0.305-0.475 0.373-0.749 0.079-0.31 0.117-0.629 0.114-0.949 0.019-0.378-0.010-0.757-0.087-1.127-0.073-0.273-0.21-0.524-0.4-0.733-0.149-0.169-0.331-0.305-0.535-0.4-0.175-0.081-0.36-0.141-0.549-0.178-0.075-0.012-0.152-0.018-0.228-0.017l-0.004 0.002zM12.278 8.379h-0.1v-3.064h0.013c0.206-0.024 0.415 0.013 0.6 0.107 0.136 0.108 0.246 0.245 0.324 0.4 0.084 0.163 0.132 0.343 0.142 0.526 0.009 0.22 0 0.4 0 0.549 0.004 0.172-0.007 0.343-0.033 0.513-0.031 0.174-0.088 0.343-0.169 0.5-0.092 0.146-0.216 0.269-0.363 0.36-0.123 0.080-0.27 0.117-0.416 0.106z"></path>
<path fill="#fff" style="fill: var(--color4, #fff)" d="M17.353 4.461h-2.43v4.8h1.028v-1.904h1.3v-0.892h-1.3v-1.112h1.4v-0.892z"></path>
</symbol>
</defs>
</svg>
