<svg aria-hidden="true" style="position: absolute; width: 0; height: 0; overflow: hidden;" version="1.1" xmlns="http://www.w3.org/2000/svg" xmlns:xlink="http://www.w3.org/1999/xlink">
<defs>
<symbol id="icon-quotes" viewBox="0 0 42 32">
<path fill="#03a8b7" style="fill: var(--color1, #03a8b7)" d="M9.626 12.761c-0.471 0-0.923 0.073-1.372 0.139 0.146-0.496 0.296-1 0.536-1.454 0.241-0.658 0.617-1.229 0.99-1.804 0.312-0.622 0.864-1.043 1.269-1.575 0.424-0.517 1.003-0.861 1.461-1.291 0.45-0.449 1.039-0.673 1.507-0.99 0.49-0.284 0.916-0.599 1.372-0.748l1.138-0.475 1.001-0.421-1.024-4.143-1.261 0.308c-0.403 0.103-0.895 0.222-1.455 0.366-0.572 0.107-1.182 0.4-1.862 0.667-0.671 0.304-1.448 0.509-2.17 0.996-0.726 0.466-1.565 0.855-2.303 1.479-0.716 0.643-1.579 1.201-2.217 2.020-0.697 0.765-1.385 1.569-1.919 2.484-0.619 0.872-1.039 1.83-1.482 2.777-0.401 0.947-0.724 1.915-0.988 2.856-0.5 1.885-0.724 3.677-0.811 5.209-0.072 1.535-0.030 2.811 0.059 3.734 0.032 0.436 0.091 0.859 0.133 1.152l0.053 0.359 0.055-0.013c0.376 1.776 1.24 3.408 2.493 4.707s2.845 2.213 4.589 2.635c1.745 0.422 3.572 0.335 5.27-0.25s3.198-1.646 4.326-3.058c1.128-1.412 1.838-3.119 2.048-4.923s-0.089-3.631-0.862-5.27c-0.773-1.639-1.988-3.023-3.506-3.992s-3.275-1.483-5.069-1.483zM32.851 12.761c-0.471 0-0.923 0.073-1.372 0.139 0.146-0.496 0.296-1 0.536-1.454 0.241-0.658 0.617-1.229 0.99-1.804 0.312-0.622 0.864-1.043 1.269-1.575 0.424-0.517 1.003-0.861 1.461-1.291 0.45-0.449 1.039-0.673 1.508-0.99 0.49-0.284 0.916-0.599 1.372-0.748l1.138-0.475 1.001-0.421-1.024-4.143-1.261 0.308c-0.403 0.103-0.895 0.222-1.455 0.366-0.572 0.107-1.182 0.4-1.862 0.667-0.669 0.306-1.448 0.509-2.17 0.998-0.726 0.466-1.565 0.855-2.304 1.479-0.716 0.643-1.579 1.201-2.217 2.018-0.697 0.765-1.385 1.569-1.919 2.484-0.619 0.872-1.039 1.83-1.482 2.777-0.401 0.947-0.724 1.915-0.988 2.856-0.5 1.885-0.724 3.677-0.811 5.209-0.072 1.535-0.030 2.811 0.059 3.734 0.032 0.436 0.091 0.859 0.133 1.152l0.053 0.359 0.055-0.013c0.376 1.776 1.24 3.408 2.493 4.707s2.845 2.213 4.589 2.635c1.745 0.422 3.572 0.335 5.27-0.25s3.198-1.646 4.326-3.058c1.128-1.412 1.838-3.119 2.048-4.923s-0.089-3.631-0.862-5.27c-0.773-1.639-1.989-3.023-3.506-3.992s-3.275-1.483-5.069-1.483z"></path>
</symbol>
</defs>
</svg>
